<svg width="35" height="35" viewBox="0 0 35 35" fill="none" xmlns="http://www.w3.org/2000/svg">
<path d="M8.78516 12.5415L17.6879 5.44054L26.8026 12.5415V27.6973H21.3444V20.3844H16.84V27.6973H8.78516V12.5415Z" fill="#0A3040"/>
<path fill-rule="evenodd" clip-rule="evenodd" d="M23.8177 27.2508H25.7802V14.4163C25.7802 13.479 26.54 12.7192 27.4773 12.7192C28.4146 12.7192 29.1744 13.479 29.1744 14.4163V28.0994C29.1744 29.5053 28.0347 30.645 26.6288 30.645H8.24486C6.83894 30.645 5.69922 29.5053 5.69922 28.0994V14.0983C5.69922 13.1611 6.45903 12.4012 7.39631 12.4012C8.33359 12.4012 9.09341 13.1611 9.09341 14.0983V27.2508H14.2716V19.826C14.2716 18.713 15.1739 17.8107 16.2869 17.8107H21.8024C22.9154 17.8107 23.8177 18.713 23.8177 19.826V27.2508ZM17.4539 20.9927V26.2961H20.6359V20.9927H17.4539Z" fill="#0A3040"/>
<path d="M17.7233 8.66548L29.7822 18.8206C30.768 19.6508 32.2401 19.5246 33.0702 18.5389C33.9004 17.5531 33.7742 16.081 32.7884 15.2508L20.5927 4.98044C18.9327 3.58251 16.5069 3.58417 14.8489 4.98438L2.68931 15.2529C1.70468 16.0844 1.58054 17.5567 2.41205 18.5413C3.24355 19.5259 4.71582 19.6501 5.70045 18.8186L17.7233 8.66548Z" fill="#7ED321"/>
</svg>
