<svg width="35" height="35" viewBox="0 0 35 35" fill="none" xmlns="http://www.w3.org/2000/svg">
<path fill-rule="evenodd" clip-rule="evenodd" d="M24.14 27.462H26.1025V14.6275C26.1025 13.6902 26.8623 12.9304 27.7996 12.9304C28.7369 12.9304 29.4967 13.6902 29.4967 14.6275V28.3105C29.4967 29.7165 28.3569 30.8562 26.951 30.8562H8.56712C7.16121 30.8562 6.02148 29.7165 6.02148 28.3105V14.3095C6.02148 13.3722 6.7813 12.6124 7.71858 12.6124C8.65586 12.6124 9.41567 13.3722 9.41567 14.3095V27.462H14.5938V20.0372C14.5938 18.9242 15.4961 18.0219 16.6091 18.0219H22.1247C23.2377 18.0219 24.14 18.9242 24.14 20.0372V27.462ZM17.7761 21.2039V26.5073H20.9582V21.2039H17.7761Z" fill="#0A3040"/>
<path d="M18.0456 8.87666L30.1045 19.0318C31.0902 19.862 32.5623 19.7358 33.3925 18.75C34.2226 17.7643 34.0965 16.2922 33.1107 15.462L20.915 5.19162C19.255 3.79369 16.8292 3.79535 15.1711 5.19557L3.01158 15.4641C2.02695 16.2956 1.90281 17.7679 2.73431 18.7525C3.56582 19.7371 5.03809 19.8613 6.02272 19.0298L18.0456 8.87666Z" fill="#0A3040"/>
</svg>
