<svg width="16" height="16" viewBox="0 0 16 16" fill="none" xmlns="http://www.w3.org/2000/svg">
<path fill-rule="evenodd" clip-rule="evenodd" d="M7.99967 3.66659C5.60644 3.66659 3.66634 5.60668 3.66634 7.99992C3.66634 10.3932 5.60644 12.3333 7.99967 12.3333C10.3929 12.3333 12.333 10.3932 12.333 7.99992C12.333 5.60668 10.3929 3.66659 7.99967 3.66659ZM2.33301 7.99992C2.33301 4.87031 4.87006 2.33325 7.99967 2.33325C11.1293 2.33325 13.6663 4.87031 13.6663 7.99992C13.6663 11.1295 11.1293 13.6666 7.99967 13.6666C4.87006 13.6666 2.33301 11.1295 2.33301 7.99992Z" fill="#0A3040"/>
<path fill-rule="evenodd" clip-rule="evenodd" d="M7.99967 7.33325C8.36786 7.33325 8.66634 7.63173 8.66634 7.99992V9.99992C8.66634 10.3681 8.36786 10.6666 7.99967 10.6666C7.63148 10.6666 7.33301 10.3681 7.33301 9.99992V7.99992C7.33301 7.63173 7.63148 7.33325 7.99967 7.33325Z" fill="#0A3040"/>
<path fill-rule="evenodd" clip-rule="evenodd" d="M7.33301 5.99992C7.33301 5.63173 7.63148 5.33325 7.99967 5.33325H8.00356C8.37175 5.33325 8.67023 5.63173 8.67023 5.99992C8.67023 6.36811 8.37175 6.66659 8.00356 6.66659H7.99967C7.63148 6.66659 7.33301 6.36811 7.33301 5.99992Z" fill="#0A3040"/>
</svg>
