<svg width="16" height="16" viewBox="0 0 16 16" fill="none" xmlns="http://www.w3.org/2000/svg">
<path d="M7.99981 2.00005C6.81312 2.00005 5.65308 2.35194 4.66639 3.01123C3.67969 3.67052 2.91066 4.60759 2.45653 5.70395C2.0024 6.8003 1.88358 8.0067 2.1151 9.17059C2.34661 10.3345 2.91805 11.4036 3.75717 12.2427C4.59628 13.0818 5.66538 13.6532 6.82926 13.8848C7.99315 14.1163 9.19955 13.9974 10.2959 13.5433C11.3923 13.0892 12.3293 12.3202 12.9886 11.3335C13.6479 10.3468 13.9998 9.18673 13.9998 8.00005C13.9994 6.40886 13.3672 4.88294 12.2421 3.7578C11.1169 2.63266 9.59099 2.00041 7.99981 2.00005ZM7.99981 13.3751C6.93673 13.3751 5.89752 13.0598 5.0136 12.4692C4.12968 11.8786 3.44075 11.0391 3.03393 10.057C2.62711 9.07482 2.52066 7.99408 2.72806 6.95143C2.93546 5.90878 3.44738 4.95104 4.19909 4.19933C4.9508 3.44762 5.90854 2.9357 6.95119 2.7283C7.99384 2.5209 9.07458 2.62735 10.0567 3.03417C11.0389 3.44099 11.8784 4.12992 12.469 5.01384C13.0596 5.89776 13.3748 6.93697 13.3748 8.00005C13.3727 9.42493 12.8057 10.7908 11.7982 11.7984C10.7906 12.8059 9.42469 13.3729 7.99981 13.3751Z" fill="#0A3040"/>
<path d="M8.35183 7.67835V5.52261C8.72422 5.58962 9.07351 5.76547 9.36334 6.03184C9.39053 6.0597 9.42244 6.08139 9.45723 6.09566C9.49202 6.10993 9.52903 6.1165 9.56613 6.115C9.60323 6.11351 9.63969 6.10397 9.67345 6.08693C9.7072 6.06989 9.73759 6.04569 9.76286 6.01571C9.78813 5.98573 9.8078 5.95056 9.82074 5.91219C9.83368 5.87383 9.83965 5.83303 9.83829 5.79213C9.83693 5.75123 9.82828 5.71102 9.81283 5.67381C9.79737 5.63659 9.77542 5.60309 9.74823 5.57523C9.3568 5.19359 8.86915 4.95259 8.35029 4.88438V4.31404C8.35029 4.23075 8.32029 4.15088 8.26687 4.09199C8.21346 4.0331 8.14101 4.00001 8.06547 4.00001C7.98993 4.00001 7.91749 4.0331 7.86407 4.09199C7.81066 4.15088 7.78065 4.23075 7.78065 4.31404V4.87928C6.81071 4.98962 6.12714 5.69744 6.12714 6.62424C6.12714 7.66137 7.20485 7.99237 7.78065 8.15193V10.5385C7.33879 10.4282 6.72604 10.1447 6.48278 9.8935C6.42991 9.8352 6.35819 9.80245 6.28341 9.80245C6.20863 9.80245 6.13691 9.8352 6.08403 9.8935C6.03116 9.9518 6.00145 10.0309 6.00145 10.1133C6.00145 10.1958 6.03116 10.2748 6.08403 10.3331C6.42582 10.71 7.22486 11.0715 7.77757 11.1666V11.686C7.77757 11.7693 7.80758 11.8491 7.86099 11.908C7.91441 11.9669 7.98685 12 8.06239 12C8.13793 12 8.21038 11.9669 8.26379 11.908C8.31721 11.8491 8.34721 11.7693 8.34721 11.686V11.1768C9.0739 11.0817 10.0007 10.6115 10.0007 9.54213C10.0254 8.71548 9.42184 8.0399 8.35183 7.67835ZM7.78219 7.5086C7.32032 7.36772 6.70448 7.13177 6.70448 6.62764C6.70448 5.96734 7.23256 5.60918 7.78219 5.51242V7.5086ZM8.35183 10.564V8.33865C8.86451 8.54234 9.42954 8.92087 9.42954 9.56419C9.44955 10.2567 8.75212 10.4757 8.35183 10.5538V10.564Z" fill="#0A3040"/>
<path fill-rule="evenodd" clip-rule="evenodd" d="M4.55527 2.84494C5.57486 2.16367 6.77356 1.80005 7.99981 1.80005C9.64402 1.80042 11.2208 2.45374 12.3835 3.61638C13.5461 4.77902 14.1994 6.35578 14.1998 8C14.1998 9.22624 13.8362 10.425 13.1549 11.4446C12.4737 12.4642 11.5053 13.2588 10.3724 13.7281C9.23954 14.1974 7.99293 14.3201 6.79025 14.0809C5.58756 13.8417 4.48283 13.2512 3.61574 12.3841C2.74866 11.517 2.15817 10.4123 1.91894 9.20961C1.67971 8.00692 1.80249 6.76031 2.27175 5.62741C2.74102 4.49451 3.53569 3.5262 4.55527 2.84494ZM7.99976 2.20005C6.85264 2.20006 5.73129 2.54022 4.7775 3.17752C3.82369 3.81484 3.08029 4.72067 2.64131 5.78048C2.20232 6.84029 2.08746 8.00648 2.31125 9.13157C2.53505 10.2567 3.08744 11.2901 3.89859 12.1013C4.70973 12.9124 5.74319 13.4648 6.86828 13.6886C7.99337 13.9124 9.15956 13.7975 10.2194 13.3585C11.2792 12.9196 12.185 12.1762 12.8223 11.2224C13.4596 10.2686 13.7998 9.14721 13.7998 8.00009M7.99976 2.20005C9.5379 2.20041 11.013 2.81159 12.1006 3.89922C13.1883 4.98686 13.7994 6.46195 13.7998 8.00009M9.9802 3.21895C9.03459 2.82726 7.99406 2.72478 6.99021 2.92446C5.98635 3.12414 5.06425 3.61701 4.34051 4.34075C3.61677 5.06449 3.1239 5.98659 2.92422 6.99045C2.72454 7.99431 2.82702 9.03483 3.2187 9.98044C3.61039 10.9261 4.27369 11.7343 5.12472 12.3029C5.97566 12.8715 6.97609 13.175 7.99951 13.1751C9.37145 13.173 10.6866 12.6271 11.6567 11.657C12.6269 10.6869 13.1728 9.37169 13.1748 7.99975C13.1748 6.97632 12.8713 5.9759 12.3027 5.12496C11.734 4.27393 10.9258 3.61063 9.9802 3.21895ZM6.91217 2.53214C7.99362 2.31703 9.11457 2.42743 10.1333 2.84939C11.152 3.27135 12.0227 3.98592 12.6353 4.90273C13.2479 5.81954 13.5748 6.89741 13.5748 8.00005C13.5726 9.47787 12.9846 10.8948 11.9396 11.9398C10.8946 12.9848 9.47793 13.5729 8.00011 13.5751C6.89747 13.5751 5.81929 13.2481 4.90249 12.6355C3.98568 12.0229 3.27111 11.1522 2.84915 10.1335C2.42719 9.11481 2.31679 7.99386 2.5319 6.91241C2.74702 5.83096 3.27799 4.83759 4.05767 4.05791C4.83735 3.27823 5.83072 2.74726 6.91217 2.53214ZM7.71593 3.95762C7.80501 3.85941 7.93024 3.80001 8.06547 3.80001C8.2007 3.80001 8.32594 3.85942 8.41501 3.95762C8.5035 4.05518 8.55029 4.18367 8.55029 4.31404V4.71511C9.04807 4.81597 9.51059 5.0642 9.88785 5.43203L9.89141 5.4355C9.93696 5.48217 9.9727 5.53729 9.99754 5.59711C10.0224 5.65693 10.036 5.7209 10.0382 5.78549C10.0403 5.85009 10.0309 5.91481 10.0102 5.97613C9.98956 6.03746 9.95774 6.09484 9.91578 6.14461C9.87379 6.19443 9.82228 6.23584 9.76356 6.26548C9.70477 6.29515 9.64038 6.31217 9.57419 6.31484C9.50799 6.31751 9.44238 6.30573 9.38134 6.2807C9.32233 6.2565 9.26929 6.22063 9.22461 6.17599C9.02518 5.99355 8.79609 5.85923 8.55183 5.77903V7.53736C9.58474 7.92561 10.2264 8.63531 10.2007 9.54509C10.1999 10.1446 9.93638 10.5833 9.57289 10.8798C9.26696 11.1293 8.89313 11.2767 8.54721 11.3462V11.686C8.54721 11.8164 8.50042 11.9448 8.41193 12.0424C8.32286 12.1406 8.19762 12.2 8.06239 12.2C7.92716 12.2 7.80193 12.1406 7.71285 12.0424C7.62436 11.9448 7.57757 11.8164 7.57757 11.686V11.3294C7.31821 11.2677 7.03111 11.1633 6.76524 11.0359C6.44391 10.8818 6.13204 10.6838 5.93589 10.4675C5.84794 10.3705 5.80145 10.2428 5.80145 10.1133C5.80145 9.98378 5.84794 9.8561 5.93589 9.75913C6.02443 9.66152 6.14894 9.60245 6.28341 9.60245C6.41655 9.60245 6.53992 9.66035 6.62829 9.75624C6.72564 9.85588 6.91322 9.97649 7.14466 10.089C7.28684 10.1581 7.43757 10.2202 7.58065 10.2697V8.303C7.30198 8.22109 6.93847 8.09554 6.62545 7.88252C6.24613 7.62438 5.92714 7.22703 5.92714 6.62424C5.92714 5.64333 6.61373 4.89075 7.58065 4.70739V4.31404C7.58065 4.18367 7.62744 4.05518 7.71593 3.95762ZM8.06547 4.20001C8.04962 4.20001 8.02997 4.20678 8.01221 4.22635C7.99387 4.24658 7.98065 4.27784 7.98065 4.31404V5.05782L7.80325 5.078C6.92263 5.17817 6.32714 5.81055 6.32714 6.62424C6.32714 7.05859 6.54701 7.3453 6.85049 7.55183C7.16172 7.76363 7.54576 7.87931 7.83406 7.95919L7.98065 7.99982V10.7946L7.7322 10.7326C7.49571 10.6735 7.21899 10.5698 6.96982 10.4487C6.72506 10.3298 6.48553 10.1838 6.3391 10.0326L6.33456 10.0279C6.31735 10.009 6.2985 10.0024 6.28341 10.0024C6.26832 10.0024 6.24939 10.0089 6.23218 10.0279C6.21437 10.0475 6.20145 10.078 6.20145 10.1133C6.20145 10.1487 6.21437 10.1791 6.23218 10.1988C6.37782 10.3593 6.63635 10.5305 6.93817 10.6752C7.23715 10.8185 7.5573 10.9258 7.81147 10.9695L7.97757 10.998V11.686C7.97757 11.7222 7.99079 11.7534 8.00913 11.7737C8.02689 11.7932 8.04655 11.8 8.06239 11.8C8.07824 11.8 8.0979 11.7932 8.11565 11.7737C8.13399 11.7534 8.14721 11.7222 8.14721 11.686V11.0012L8.32127 10.9784C8.65746 10.9345 9.03308 10.8039 9.32006 10.5698C9.60106 10.3406 9.80072 10.0105 9.80072 9.54213V9.53617C9.82166 8.83339 9.31443 8.21472 8.28781 7.86782L8.15183 7.82188V5.2834L8.38726 5.32577C8.79853 5.39978 9.18211 5.59364 9.49867 5.88458L9.50267 5.88826L9.50647 5.89215C9.51527 5.90117 9.5245 5.90708 9.53312 5.91061C9.54167 5.91412 9.55006 5.91549 9.55806 5.91517C9.56607 5.91484 9.57461 5.91278 9.58334 5.90838C9.59213 5.90394 9.60138 5.89696 9.60994 5.88681C9.61852 5.87663 9.62604 5.86365 9.63124 5.84826C9.63643 5.83286 9.63897 5.81598 9.6384 5.79877C9.63783 5.78156 9.63418 5.76511 9.62811 5.7505C9.62234 5.7366 9.61472 5.72513 9.60637 5.71625C9.24477 5.36458 8.79729 5.14487 8.32422 5.08267L8.15029 5.0598V4.31404C8.15029 4.27784 8.13707 4.24658 8.11873 4.22635C8.10098 4.20678 8.08132 4.20001 8.06547 4.20001ZM7.98219 5.27414V7.77871L7.72384 7.6999C7.49104 7.62889 7.19757 7.52796 6.96002 7.3713C6.72123 7.21381 6.50448 6.97551 6.50448 6.62764C6.50448 5.82859 7.15021 5.4206 7.74752 5.31545L7.98219 5.27414ZM7.58219 5.76938C7.19305 5.9029 6.90448 6.1903 6.90448 6.62764C6.90448 6.7839 6.99566 6.91564 7.18025 7.03738C7.297 7.11438 7.43725 7.17753 7.58219 7.23117V5.76938ZM8.15183 8.04398L8.42568 8.15278C8.9452 8.35919 9.62785 8.78308 9.62954 9.56131C9.64089 9.98916 9.42493 10.275 9.16086 10.4547C8.90511 10.6289 8.59864 10.7094 8.39012 10.7501L8.35382 10.564H8.15183V8.04398ZM8.55183 10.2989V8.65075C8.93407 8.85519 9.22954 9.15202 9.22954 9.56419L9.22962 9.56997C9.23723 9.83307 9.11486 10.0022 8.93574 10.1241C8.82018 10.2028 8.68409 10.2588 8.55183 10.2989Z" fill="#0A3040"/>
</svg>
