<svg width="49" height="49" viewBox="0 0 49 49" fill="none" xmlns="http://www.w3.org/2000/svg">
<circle cx="24.5098" cy="24.7219" r="22.5" stroke="#0A3040" stroke-width="3"/>
<path d="M24.5098 14.2111C22.4309 14.2111 20.3987 14.8275 18.6702 15.9825C16.9417 17.1375 15.5945 18.779 14.7989 20.6997C14.0034 22.6203 13.7952 24.7337 14.2008 26.7726C14.6063 28.8115 15.6074 30.6844 17.0774 32.1544C18.5474 33.6244 20.4202 34.6254 22.4592 35.031C24.4981 35.4366 26.6115 35.2284 28.5321 34.4329C30.4527 33.6373 32.0943 32.2901 33.2493 30.5616C34.4042 28.8331 35.0207 26.8009 35.0207 24.722C35.0201 21.9345 33.9125 19.2614 31.9414 17.2904C29.9704 15.3193 27.2972 14.2117 24.5098 14.2111ZM24.5098 34.1381C22.6474 34.1381 20.8269 33.5859 19.2784 32.5512C17.73 31.5166 16.5231 30.046 15.8104 28.3254C15.0977 26.6048 14.9113 24.7116 15.2746 22.885C15.6379 21.0585 16.5347 19.3807 17.8516 18.0638C19.1684 16.747 20.8462 15.8502 22.6728 15.4869C24.4993 15.1235 26.3926 15.31 28.1131 16.0227C29.8337 16.7354 31.3043 17.9422 32.339 19.4907C33.3736 21.0392 33.9259 22.8597 33.9259 24.722C33.9221 27.2182 32.9288 29.611 31.1638 31.3761C29.3987 33.1411 27.0059 34.1344 24.5098 34.1381Z" fill="#0A3040"/>
<path d="M25.1264 24.1585V20.382C25.7788 20.4994 26.3907 20.8074 26.8984 21.2741C26.9461 21.3229 27.002 21.3609 27.0629 21.3859C27.1239 21.4109 27.1887 21.4224 27.2537 21.4198C27.3187 21.4171 27.3825 21.4004 27.4417 21.3706C27.5008 21.3407 27.554 21.2983 27.5983 21.2458C27.6426 21.1933 27.677 21.1317 27.6997 21.0645C27.7224 20.9973 27.7328 20.9258 27.7305 20.8541C27.7281 20.7825 27.7129 20.7121 27.6858 20.6469C27.6588 20.5817 27.6203 20.523 27.5727 20.4742C26.887 19.8056 26.0327 19.3834 25.1237 19.2639V18.2648C25.1237 18.1189 25.0712 17.979 24.9776 17.8758C24.884 17.7726 24.7571 17.7147 24.6248 17.7147C24.4925 17.7147 24.3655 17.7726 24.272 17.8758C24.1784 17.979 24.1258 18.1189 24.1258 18.2648V19.255C22.4267 19.4483 21.2292 20.6883 21.2292 22.3119C21.2292 24.1287 23.1171 24.7086 24.1258 24.9881V29.169C23.3518 28.9757 22.2783 28.4791 21.8522 28.039C21.7596 27.9369 21.6339 27.8795 21.5029 27.8795C21.3719 27.8795 21.2463 27.9369 21.1537 28.039C21.061 28.1412 21.009 28.2797 21.009 28.4241C21.009 28.5685 21.061 28.7071 21.1537 28.8092C21.7524 29.4693 23.1522 30.1027 24.1204 30.2692V31.1791C24.1204 31.325 24.173 31.465 24.2666 31.5681C24.3601 31.6713 24.4871 31.7293 24.6194 31.7293C24.7517 31.7293 24.8786 31.6713 24.9722 31.5681C25.0658 31.465 25.1184 31.325 25.1184 31.1791V30.2871C26.3914 30.1205 28.015 29.2969 28.015 27.4235C28.0582 25.9753 27.0009 24.7918 25.1264 24.1585ZM24.1285 23.8611C23.3194 23.6143 22.2406 23.201 22.2406 22.3178C22.2406 21.1611 23.1657 20.5336 24.1285 20.3641V23.8611ZM25.1264 29.2136V25.3152C26.0246 25.672 27.0144 26.3351 27.0144 27.4621C27.0495 28.6754 25.8277 29.059 25.1264 29.1958V29.2136Z" fill="#0A3040"/>
<path fill-rule="evenodd" clip-rule="evenodd" d="M18.4755 15.6912C20.2617 14.4977 22.3616 13.8607 24.5098 13.8607C27.3901 13.8614 30.1524 15.0059 32.1892 17.0426C34.2259 19.0793 35.3704 21.8416 35.3711 24.7219C35.3711 26.8701 34.7341 28.9701 33.5406 30.7562C32.3471 32.5424 30.6508 33.9345 28.6662 34.7566C26.6816 35.5786 24.4977 35.7937 22.3908 35.3746C20.2839 34.9556 18.3486 33.9211 16.8296 32.4021C15.3107 30.8832 14.2762 28.9479 13.8571 26.841C13.4381 24.7341 13.6531 22.5502 14.4752 20.5656C15.2973 18.5809 16.6894 16.8846 18.4755 15.6912ZM24.5097 14.5614C22.5001 14.5615 20.5357 15.1574 18.8648 16.2738C17.1939 17.3903 15.8916 18.9771 15.1226 20.8337C14.3536 22.6903 14.1524 24.7333 14.5444 26.7043C14.9365 28.6752 15.9042 30.4857 17.3251 31.9066C18.7461 33.3276 20.5566 34.2953 22.5275 34.6874C24.4985 35.0794 26.5414 34.8782 28.398 34.1092C30.2546 33.3401 31.8415 32.0378 32.958 30.3669C34.0744 28.6961 34.6703 26.7317 34.6703 24.7221M24.5097 14.5614C27.2042 14.5621 29.7883 15.6328 31.6937 17.5381C33.599 19.4434 34.6697 22.0275 34.6703 24.7221M27.9791 16.3464C26.3225 15.6602 24.4997 15.4807 22.7411 15.8305C20.9825 16.1803 19.3672 17.0437 18.0993 18.3116C16.8314 19.5794 15.968 21.1948 15.6182 22.9534C15.2684 24.712 15.4479 26.5348 16.1341 28.1913C16.8203 29.8479 17.9822 31.2638 19.4731 32.2599C20.9638 33.256 22.7164 33.7877 24.5092 33.7878C26.9126 33.7842 29.2166 32.8278 30.9161 31.1283C32.6155 29.4289 33.5719 27.1249 33.5755 24.7215C33.5754 22.9286 33.0437 21.1761 32.0476 19.6854C31.0515 18.1945 29.6356 17.0325 27.9791 16.3464ZM22.6044 15.1432C24.4989 14.7664 26.4626 14.9598 28.2472 15.699C30.0318 16.4382 31.5571 17.69 32.6303 19.2961C33.7034 20.9022 34.2762 22.7904 34.2762 24.722C34.2723 27.3109 33.2422 29.7932 31.4115 31.6238C29.5809 33.4544 27.0992 34.4846 24.5103 34.4885C22.5787 34.4885 20.6899 33.9157 19.0838 32.8425C17.4777 31.7694 16.2259 30.2441 15.4867 28.4595C14.7475 26.6749 14.5541 24.7112 14.9309 22.8167C15.3078 20.9222 16.238 19.182 17.6038 17.8161C18.9697 16.4502 20.7099 15.5201 22.6044 15.1432ZM24.0125 17.6404C24.1685 17.4684 24.3879 17.3643 24.6248 17.3643C24.8617 17.3643 25.0811 17.4684 25.2371 17.6404C25.3921 17.8113 25.4741 18.0364 25.4741 18.2648V18.9674C26.3461 19.1441 27.1564 19.5789 27.8173 20.2233L27.8235 20.2294C27.9033 20.3111 27.9659 20.4077 28.0094 20.5125C28.0529 20.6173 28.0769 20.7294 28.0806 20.8425C28.0844 20.9557 28.0679 21.0691 28.0317 21.1765C27.9954 21.2839 27.9397 21.3844 27.8662 21.4716C27.7926 21.5589 27.7024 21.6315 27.5995 21.6834C27.4966 21.7353 27.3838 21.7652 27.2678 21.7698C27.1518 21.7745 27.0369 21.7539 26.93 21.71C26.8266 21.6676 26.7337 21.6048 26.6554 21.5266C26.306 21.207 25.9047 20.9717 25.4768 20.8312V23.9115C27.2863 24.5916 28.4103 25.8349 28.3654 27.4287C28.3639 28.4788 27.9023 29.2474 27.2655 29.7668C26.7296 30.204 26.0747 30.4621 25.4687 30.5839V31.1791C25.4687 31.4075 25.3867 31.6326 25.2317 31.8035C25.0757 31.9756 24.8563 32.0796 24.6194 32.0796C24.3825 32.0796 24.1631 31.9756 24.0071 31.8035C23.852 31.6326 23.7701 31.4075 23.7701 31.1791V30.5545C23.3157 30.4463 22.8128 30.2635 22.347 30.0402C21.7841 29.7704 21.2377 29.4234 20.8941 29.0446C20.7401 28.8747 20.6586 28.651 20.6586 28.4241C20.6586 28.1972 20.7401 27.9735 20.8941 27.8036C21.0492 27.6326 21.2674 27.5291 21.5029 27.5291C21.7362 27.5291 21.9523 27.6306 22.1071 27.7986C22.2776 27.9731 22.6062 28.1844 23.0117 28.3814C23.2608 28.5025 23.5248 28.6114 23.7755 28.6981V25.2527C23.2873 25.1093 22.6505 24.8893 22.1021 24.5161C21.4376 24.0639 20.8788 23.3678 20.8788 22.3119C20.8788 20.5935 22.0816 19.2751 23.7755 18.9539V18.2648C23.7755 18.0364 23.8574 17.8113 24.0125 17.6404ZM24.6248 18.065C24.597 18.065 24.5626 18.0769 24.5315 18.1112C24.4994 18.1466 24.4762 18.2014 24.4762 18.2648V19.5678L24.1654 19.6031C22.6227 19.7786 21.5795 20.8864 21.5795 22.3119C21.5795 23.0728 21.9647 23.575 22.4964 23.9368C23.0416 24.3079 23.7143 24.5105 24.2194 24.6505L24.4762 24.7216V29.6176L24.0409 29.5089C23.6267 29.4055 23.1419 29.2238 22.7054 29.0117C22.2766 28.8033 21.857 28.5477 21.6005 28.2827L21.5925 28.2745C21.5624 28.2413 21.5294 28.2299 21.5029 28.2299C21.4765 28.2299 21.4433 28.2412 21.4132 28.2744C21.382 28.3088 21.3593 28.3622 21.3593 28.4241C21.3593 28.4861 21.382 28.5394 21.4132 28.5738C21.6683 28.8551 22.1212 29.1549 22.6499 29.4084C23.1737 29.6595 23.7346 29.8473 24.1798 29.9239L24.4708 29.974V31.1791C24.4708 31.2426 24.494 31.2973 24.5261 31.3328C24.5572 31.367 24.5916 31.3789 24.6194 31.3789C24.6472 31.3789 24.6816 31.367 24.7127 31.3328C24.7448 31.2973 24.768 31.2426 24.768 31.1791V29.9795L25.0729 29.9397C25.6619 29.8626 26.3199 29.6339 26.8226 29.2238C27.3149 28.8223 27.6646 28.244 27.6646 27.4235V27.413C27.7013 26.1819 26.8127 25.0981 25.0143 24.4904L24.7761 24.4099V19.9629L25.1885 20.0372C25.909 20.1668 26.5809 20.5064 27.1355 21.0161L27.1425 21.0225L27.1492 21.0294C27.1646 21.0452 27.1807 21.0555 27.1958 21.0617C27.2108 21.0679 27.2255 21.0702 27.2395 21.0697C27.2536 21.0691 27.2685 21.0655 27.2838 21.0578C27.2992 21.05 27.3154 21.0378 27.3304 21.02C27.3455 21.0022 27.3586 20.9794 27.3677 20.9525C27.3768 20.9255 27.3813 20.8959 27.3803 20.8658C27.3793 20.8356 27.3729 20.8068 27.3623 20.7812C27.3522 20.7569 27.3388 20.7368 27.3242 20.7212C26.6907 20.1052 25.9068 19.7203 25.0781 19.6113L24.7734 19.5712V18.2648C24.7734 18.2014 24.7502 18.1466 24.7181 18.1112C24.687 18.0769 24.6525 18.065 24.6248 18.065ZM24.4789 19.9467V24.3343L24.0263 24.1962C23.6185 24.0718 23.1044 23.895 22.6882 23.6206C22.2699 23.3447 21.8902 22.9272 21.8902 22.3178C21.8902 20.918 23.0214 20.2033 24.0678 20.0191L24.4789 19.9467ZM23.7782 20.8143C23.0965 21.0482 22.5909 21.5517 22.5909 22.3178C22.5909 22.5915 22.7507 22.8223 23.074 23.0356C23.2786 23.1705 23.5242 23.2811 23.7782 23.3751V20.8143ZM24.7761 24.799L25.2558 24.9896C26.1659 25.3512 27.3618 26.0938 27.3648 27.4571C27.3847 28.2066 27.0063 28.7073 26.5437 29.0222C26.0957 29.3273 25.5588 29.4684 25.1935 29.5396L25.1299 29.2136H24.7761V24.799ZM25.4768 28.7493V25.8619C26.1464 26.2201 26.664 26.7401 26.664 27.4621L26.6642 27.4723C26.6775 27.9332 26.4631 28.2294 26.1494 28.443C25.9469 28.5808 25.7085 28.6789 25.4768 28.7493Z" fill="#0A3040"/>
</svg>
