<svg width="49" height="49" viewBox="0 0 49 49" fill="none" xmlns="http://www.w3.org/2000/svg">
<path d="M48.6504 24.7219C48.6504 37.9768 37.9052 48.7219 24.6504 48.7219C11.3956 48.7219 0.650391 37.9768 0.650391 24.7219C0.650391 11.4671 11.3956 0.721924 24.6504 0.721924C37.9052 0.721924 48.6504 11.4671 48.6504 24.7219Z" fill="url(#paint0_linear_1_9413)"/>
<path fill-rule="evenodd" clip-rule="evenodd" d="M24.6504 45.7219C36.2484 45.7219 45.6504 36.3199 45.6504 24.7219C45.6504 13.1239 36.2484 3.72192 24.6504 3.72192C13.0524 3.72192 3.65039 13.1239 3.65039 24.7219C3.65039 36.3199 13.0524 45.7219 24.6504 45.7219ZM24.6504 48.7219C37.9052 48.7219 48.6504 37.9768 48.6504 24.7219C48.6504 11.4671 37.9052 0.721924 24.6504 0.721924C11.3956 0.721924 0.650391 11.4671 0.650391 24.7219C0.650391 37.9768 11.3956 48.7219 24.6504 48.7219Z" fill="url(#paint1_linear_1_9413)"/>
<path d="M24.6504 14.2111C22.5715 14.2111 20.5393 14.8275 18.8108 15.9825C17.0823 17.1375 15.7351 18.779 14.9395 20.6997C14.144 22.6203 13.9358 24.7337 14.3414 26.7726C14.747 28.8115 15.748 30.6844 17.218 32.1544C18.688 33.6244 20.5609 34.6254 22.5998 35.031C24.6387 35.4366 26.7521 35.2284 28.6727 34.4329C30.5934 33.6373 32.235 32.2901 33.3899 30.5616C34.5449 28.8331 35.1613 26.8009 35.1613 24.722C35.1607 21.9345 34.0531 19.2614 32.082 17.2904C30.111 15.3193 27.4379 14.2117 24.6504 14.2111ZM24.6504 34.1381C22.788 34.1381 20.9675 33.5859 19.4191 32.5512C17.8706 31.5166 16.6637 30.046 15.951 28.3254C15.2383 26.6048 15.0519 24.7116 15.4152 22.885C15.7785 21.0585 16.6753 19.3807 17.9922 18.0638C19.3091 16.747 20.9868 15.8502 22.8134 15.4869C24.6399 15.1235 26.5332 15.31 28.2538 16.0227C29.9743 16.7354 31.4449 17.9422 32.4796 19.4907C33.5142 21.0392 34.0665 22.8597 34.0665 24.722C34.0627 27.2182 33.0695 29.611 31.3044 31.3761C29.5394 33.1411 27.1465 34.1344 24.6504 34.1381Z" fill="white"/>
<path d="M25.2671 24.1585V20.382C25.9194 20.4994 26.5313 20.8074 27.039 21.2741C27.0867 21.3229 27.1426 21.3609 27.2035 21.3859C27.2645 21.4109 27.3293 21.4224 27.3943 21.4198C27.4593 21.4171 27.5232 21.4004 27.5823 21.3706C27.6414 21.3407 27.6947 21.2983 27.7389 21.2458C27.7832 21.1933 27.8177 21.1317 27.8403 21.0645C27.863 20.9973 27.8735 20.9258 27.8711 20.8541C27.8687 20.7825 27.8535 20.7121 27.8265 20.6469C27.7994 20.5817 27.761 20.523 27.7133 20.4742C27.0276 19.8056 26.1733 19.3834 25.2644 19.2639V18.2648C25.2644 18.1189 25.2118 17.979 25.1182 17.8758C25.0247 17.7726 24.8977 17.7147 24.7654 17.7147C24.6331 17.7147 24.5062 17.7726 24.4126 17.8758C24.319 17.979 24.2665 18.1189 24.2665 18.2648V19.255C22.5673 19.4483 21.3698 20.6883 21.3698 22.3119C21.3698 24.1287 23.2577 24.7086 24.2665 24.9881V29.169C23.4924 28.9757 22.419 28.4791 21.9928 28.039C21.9002 27.9369 21.7746 27.8795 21.6436 27.8795C21.5125 27.8795 21.3869 27.9369 21.2943 28.039C21.2016 28.1412 21.1496 28.2797 21.1496 28.4241C21.1496 28.5685 21.2016 28.7071 21.2943 28.8092C21.893 29.4693 23.2928 30.1027 24.2611 30.2692V31.1791C24.2611 31.325 24.3136 31.465 24.4072 31.5681C24.5008 31.6713 24.6277 31.7293 24.76 31.7293C24.8923 31.7293 25.0193 31.6713 25.1128 31.5681C25.2064 31.465 25.259 31.325 25.259 31.1791V30.2871C26.532 30.1205 28.1556 29.2969 28.1556 27.4235C28.1988 25.9753 27.1415 24.7918 25.2671 24.1585ZM24.2692 23.8611C23.46 23.6143 22.3812 23.201 22.3812 22.3178C22.3812 21.1611 23.3063 20.5336 24.2692 20.3641V23.8611ZM25.2671 29.2136V25.3152C26.1652 25.672 27.155 26.3351 27.155 27.4621C27.1901 28.6754 25.9683 29.059 25.2671 29.1958V29.2136Z" fill="white"/>
<path fill-rule="evenodd" clip-rule="evenodd" d="M18.6162 15.6912C20.4023 14.4977 22.5022 13.8607 24.6504 13.8607C27.5308 13.8614 30.2931 15.0059 32.3298 17.0426C34.3665 19.0793 35.511 21.8416 35.5117 24.7219C35.5117 26.8701 34.8747 28.9701 33.6812 30.7562C32.4878 32.5424 30.7915 33.9345 28.8068 34.7566C26.8222 35.5786 24.6383 35.7937 22.5314 35.3746C20.4246 34.9556 18.4893 33.9211 16.9703 32.4021C15.4513 30.8832 14.4169 28.9479 13.9978 26.841C13.5787 24.7341 13.7938 22.5502 14.6158 20.5656C15.4379 18.5809 16.83 16.8846 18.6162 15.6912ZM24.6503 14.5614C22.6408 14.5615 20.6763 15.1574 19.0055 16.2738C17.3346 17.3903 16.0323 18.9771 15.2632 20.8337C14.4942 22.6903 14.293 24.7333 14.685 26.7043C15.0771 28.6752 16.0448 30.4857 17.4658 31.9066C18.8867 33.3276 20.6972 34.2953 22.6681 34.6874C24.6391 35.0794 26.6821 34.8782 28.5387 34.1092C30.3953 33.3401 31.9821 32.0378 33.0986 30.3669C34.215 28.6961 34.8109 26.7317 34.811 24.7221M24.6503 14.5614C27.3449 14.5621 29.929 15.6328 31.8343 17.5381C33.7396 19.4434 34.8103 22.0275 34.811 24.7221M28.1197 16.3464C26.4631 15.6602 24.6403 15.4807 22.8817 15.8305C21.1232 16.1803 19.5078 17.0437 18.2399 18.3116C16.9721 19.5794 16.1086 21.1948 15.7588 22.9534C15.409 24.712 15.5886 26.5348 16.2747 28.1913C16.9609 29.8479 18.1229 31.2638 19.6137 32.2599C21.1044 33.256 22.857 33.7877 24.6499 33.7878C27.0533 33.7842 29.3572 32.8278 31.0567 31.1283C32.7561 29.4289 33.7125 27.1249 33.7161 24.7215C33.716 22.9286 33.1843 21.1761 32.1883 19.6854C31.1921 18.1945 29.7762 17.0325 28.1197 16.3464ZM22.745 15.1432C24.6395 14.7664 26.6033 14.9598 28.3878 15.699C30.1724 16.4382 31.6977 17.69 32.7709 19.2961C33.8441 20.9022 34.4168 22.7904 34.4168 24.722C34.413 27.3109 33.3828 29.7932 31.5522 31.6238C29.7215 33.4544 27.2398 34.4846 24.6509 34.4885C22.7193 34.4885 20.8305 33.9157 19.2244 32.8425C17.6183 31.7694 16.3665 30.2441 15.6273 28.4595C14.8881 26.6749 14.6947 24.7112 15.0716 22.8167C15.4484 20.9222 16.3786 19.182 17.7444 17.8161C19.1103 16.4502 20.8505 15.5201 22.745 15.1432ZM24.1531 17.6404C24.3091 17.4684 24.5285 17.3643 24.7654 17.3643C25.0023 17.3643 25.2217 17.4684 25.3777 17.6404C25.5328 17.8113 25.6147 18.0364 25.6147 18.2648V18.9674C26.4868 19.1441 27.297 19.5789 27.9579 20.2233L27.9641 20.2294C28.0439 20.3111 28.1065 20.4077 28.1501 20.5125C28.1936 20.6173 28.2175 20.7294 28.2212 20.8425C28.225 20.9557 28.2086 21.0691 28.1723 21.1765C28.1361 21.2839 28.0803 21.3844 28.0068 21.4716C27.9333 21.5589 27.843 21.6315 27.7402 21.6834C27.6372 21.7353 27.5244 21.7652 27.4084 21.7698C27.2925 21.7745 27.1775 21.7539 27.0706 21.71C26.9672 21.6676 26.8743 21.6048 26.796 21.5266C26.4467 21.207 26.0453 20.9717 25.6174 20.8312V23.9115C27.4269 24.5916 28.5509 25.8349 28.506 27.4287C28.5045 28.4788 28.0429 29.2474 27.4061 29.7668C26.8702 30.204 26.2153 30.4621 25.6093 30.5839V31.1791C25.6093 31.4075 25.5274 31.6326 25.3724 31.8035C25.2163 31.9756 24.9969 32.0796 24.76 32.0796C24.5231 32.0796 24.3037 31.9756 24.1477 31.8035C23.9927 31.6326 23.9107 31.4075 23.9107 31.1791V30.5545C23.4563 30.4463 22.9534 30.2635 22.4876 30.0402C21.9247 29.7704 21.3784 29.4234 21.0348 29.0446C20.8807 28.8747 20.7992 28.651 20.7992 28.4241C20.7992 28.1972 20.8807 27.9735 21.0348 27.8036C21.1899 27.6326 21.408 27.5291 21.6436 27.5291C21.8768 27.5291 22.0929 27.6306 22.2477 27.7986C22.4183 27.9731 22.7469 28.1844 23.1523 28.3814C23.4014 28.5025 23.6654 28.6114 23.9161 28.6981V25.2527C23.4279 25.1093 22.7911 24.8893 22.2427 24.5161C21.5782 24.0639 21.0194 23.3678 21.0194 22.3119C21.0194 20.5935 22.2222 19.2751 23.9161 18.9539V18.2648C23.9161 18.0364 23.9981 17.8113 24.1531 17.6404ZM24.7654 18.065C24.7376 18.065 24.7032 18.0769 24.6721 18.1112C24.64 18.1466 24.6168 18.2014 24.6168 18.2648V19.5678L24.3061 19.6031C22.7634 19.7786 21.7202 20.8864 21.7202 22.3119C21.7202 23.0728 22.1053 23.575 22.637 23.9368C23.1822 24.3079 23.855 24.5105 24.36 24.6505L24.6168 24.7216V29.6176L24.1816 29.5089C23.7673 29.4055 23.2825 29.2238 22.846 29.0117C22.4172 28.8033 21.9976 28.5477 21.7411 28.2827L21.7332 28.2745C21.703 28.2413 21.67 28.2299 21.6436 28.2299C21.6171 28.2299 21.584 28.2412 21.5538 28.2744C21.5226 28.3088 21.5 28.3622 21.5 28.4241C21.5 28.4861 21.5226 28.5394 21.5538 28.5738C21.8089 28.8551 22.2618 29.1549 22.7906 29.4084C23.3143 29.6595 23.8752 29.8473 24.3204 29.9239L24.6114 29.974V31.1791C24.6114 31.2426 24.6346 31.2973 24.6667 31.3328C24.6978 31.367 24.7323 31.3789 24.76 31.3789C24.7878 31.3789 24.8222 31.367 24.8533 31.3328C24.8854 31.2973 24.9086 31.2426 24.9086 31.1791V29.9795L25.2135 29.9397C25.8025 29.8626 26.4605 29.6339 26.9632 29.2238C27.4555 28.8223 27.8053 28.244 27.8053 27.4235V27.413C27.842 26.1819 26.9534 25.0981 25.1549 24.4904L24.9167 24.4099V19.9629L25.3291 20.0372C26.0496 20.1668 26.7216 20.5064 27.2761 21.0161L27.2831 21.0225L27.2898 21.0294C27.3052 21.0452 27.3214 21.0555 27.3365 21.0617C27.3514 21.0679 27.3662 21.0702 27.3802 21.0697C27.3942 21.0691 27.4092 21.0655 27.4244 21.0578C27.4398 21.05 27.4561 21.0378 27.471 21.02C27.4861 21.0022 27.4993 20.9794 27.5084 20.9525C27.5175 20.9255 27.5219 20.8959 27.5209 20.8658C27.5199 20.8356 27.5135 20.8068 27.5029 20.7812C27.4928 20.7569 27.4794 20.7368 27.4648 20.7212C26.8313 20.1052 26.0474 19.7203 25.2187 19.6113L24.914 19.5712V18.2648C24.914 18.2014 24.8908 18.1466 24.8587 18.1112C24.8276 18.0769 24.7932 18.065 24.7654 18.065ZM24.6195 19.9467V24.3343L24.1669 24.1962C23.7591 24.0718 23.245 23.895 22.8289 23.6206C22.4105 23.3447 22.0308 22.9272 22.0308 22.3178C22.0308 20.918 23.162 20.2033 24.2084 20.0191L24.6195 19.9467ZM23.9188 20.8143C23.2371 21.0482 22.7316 21.5517 22.7316 22.3178C22.7316 22.5915 22.8913 22.8223 23.2147 23.0356C23.4192 23.1705 23.6649 23.2811 23.9188 23.3751V20.8143ZM24.9167 24.799L25.3964 24.9896C26.3065 25.3512 27.5024 26.0938 27.5054 27.4571C27.5253 28.2066 27.147 28.7073 26.6843 29.0222C26.2363 29.3273 25.6994 29.4684 25.3341 29.5396L25.2705 29.2136H24.9167V24.799ZM25.6174 28.7493V25.8619C26.287 26.2201 26.8047 26.7401 26.8047 27.4621L26.8048 27.4723C26.8181 27.9332 26.6038 28.2294 26.29 28.443C26.0875 28.5808 25.8491 28.6789 25.6174 28.7493Z" fill="white"/>
<defs>
<linearGradient id="paint0_linear_1_9413" x1="10.4104" y1="10.0019" x2="64.2504" y2="24.9558" gradientUnits="userSpaceOnUse">
<stop stop-color="#0A3040"/>
<stop offset="0.306028" stop-color="#062B58"/>
<stop offset="1" stop-color="#7F50E3"/>
</linearGradient>
<linearGradient id="paint1_linear_1_9413" x1="10.4104" y1="10.0019" x2="64.2504" y2="24.9558" gradientUnits="userSpaceOnUse">
<stop stop-color="#0A3040"/>
<stop offset="0.306028" stop-color="#062B58"/>
<stop offset="1" stop-color="#7F50E3"/>
</linearGradient>
</defs>
</svg>
