<svg width="42" height="42" viewBox="0 0 42 42" fill="none" xmlns="http://www.w3.org/2000/svg">
<g filter="url(#filter0_ddd_711_1232)">
<path fill-rule="evenodd" clip-rule="evenodd" d="M21 38C30.9411 38 39 29.9411 39 20C39 10.0589 30.9411 2 21 2C11.0589 2 3 10.0589 3 20C3 29.9411 11.0589 38 21 38Z" fill="white"/>
</g>
<path d="M12.9275 20.8088L21.0722 29.8425C23.7903 26.8347 26.5083 23.8271 29.2264 20.8192C31.0668 18.7827 31.0668 15.5037 29.2264 13.4671C27.386 11.4304 24.4227 11.4304 22.5822 13.4671L21.0816 15.1276L19.5716 13.4566C17.7312 11.4201 14.7679 11.4201 12.9275 13.4566C11.0871 15.4931 11.0889 18.7703 12.9275 20.8088Z" fill="#D0021B"/>
<defs>
<filter id="filter0_ddd_711_1232" x="0" y="0" width="42" height="42" filterUnits="userSpaceOnUse" color-interpolation-filters="sRGB">
<feFlood flood-opacity="0" result="BackgroundImageFix"/>
<feColorMatrix in="SourceAlpha" type="matrix" values="0 0 0 0 0 0 0 0 0 0 0 0 0 0 0 0 0 0 127 0" result="hardAlpha"/>
<feOffset dy="1"/>
<feGaussianBlur stdDeviation="1.5"/>
<feColorMatrix type="matrix" values="0 0 0 0 0 0 0 0 0 0 0 0 0 0 0 0 0 0 0.2 0"/>
<feBlend mode="normal" in2="BackgroundImageFix" result="effect1_dropShadow_711_1232"/>
<feColorMatrix in="SourceAlpha" type="matrix" values="0 0 0 0 0 0 0 0 0 0 0 0 0 0 0 0 0 0 127 0" result="hardAlpha"/>
<feOffset dy="2"/>
<feGaussianBlur stdDeviation="1"/>
<feColorMatrix type="matrix" values="0 0 0 0 0 0 0 0 0 0 0 0 0 0 0 0 0 0 0.12 0"/>
<feBlend mode="normal" in2="effect1_dropShadow_711_1232" result="effect2_dropShadow_711_1232"/>
<feColorMatrix in="SourceAlpha" type="matrix" values="0 0 0 0 0 0 0 0 0 0 0 0 0 0 0 0 0 0 127 0" result="hardAlpha"/>
<feOffset/>
<feGaussianBlur stdDeviation="1"/>
<feColorMatrix type="matrix" values="0 0 0 0 0 0 0 0 0 0 0 0 0 0 0 0 0 0 0.14 0"/>
<feBlend mode="normal" in2="effect2_dropShadow_711_1232" result="effect3_dropShadow_711_1232"/>
<feBlend mode="normal" in="SourceGraphic" in2="effect3_dropShadow_711_1232" result="shape"/>
</filter>
</defs>
</svg>
